<svg width="64" height="64" viewBox="0 0 64 64" fill="none" xmlns="http://www.w3.org/2000/svg">
<rect width="64" height="64" fill="#EE3524"/>
<path d="M32 10.6667C34.8169 10.6667 35.7246 12.7534 36.4757 14.8402C36.7887 15.707 44.144 36.3822 44.3631 36.9922C44.4257 37.1527 44.3944 37.4417 44.1127 37.538C43.831 37.6343 40.0438 39.1753 39.8247 39.2395C39.6056 39.3037 39.3865 39.2074 39.2926 38.9827C39.1987 38.758 37.6338 34.2634 37.446 33.7818C36.9139 33.7818 27.0861 33.7818 26.554 33.7818C26.3662 34.2955 24.7699 38.7901 24.7073 38.9827C24.6447 39.1753 24.3944 39.3358 24.1753 39.2395C23.9562 39.1432 20.1064 37.6343 19.8873 37.538C19.6682 37.4417 19.5743 37.1849 19.6369 36.9922C19.9186 36.2217 27.1487 15.8997 27.5242 14.8402C28.2441 12.7856 29.1831 10.6667 32 10.6667ZM19.0735 47.6188C18.8544 47.6188 18.6667 47.8114 18.6667 48.0682V52.8839C18.6667 53.1407 18.8544 53.3333 19.0735 53.3333H44.9264C45.1455 53.3333 45.3333 53.1407 45.3333 52.8839V48.0682C45.3333 47.8114 45.1455 47.6188 44.9264 47.6188H19.0735ZM32 17.4086L28.3067 28.7414H35.7246L32.0313 17.4086H32Z" fill="white"/>
</svg>
