<svg width="64" height="64" viewBox="0 0 64 64" fill="none" xmlns="http://www.w3.org/2000/svg">
<rect width="64" height="64" fill="#009B3A"/>
<g clip-path="url(#clip0)">
<path d="M16.6359 20.7677C16.6359 20.7033 16.6143 20.6389 16.5926 20.5315L15.2281 16.8375C15.0549 16.3865 14.8166 16.1932 14.4484 16.1932C14.0586 16.1932 13.8204 16.3865 13.6688 16.8375L12.2826 20.5315C12.2393 20.6603 12.2177 20.7248 12.2177 20.7677C12.2177 20.961 12.3693 21.1113 12.5858 21.1113C12.7591 21.1113 12.8891 21.0254 12.9757 20.8107L13.4305 19.5436H15.4664L15.9212 20.8107C15.9862 21.0254 16.1161 21.1113 16.2894 21.1113C16.4843 21.1328 16.6359 20.961 16.6359 20.7677ZM13.6471 18.8993L14.3185 16.9879C14.3402 16.9234 14.3618 16.9019 14.4268 16.9019C14.4701 16.9019 14.4918 16.9234 14.5134 16.9879L15.1848 18.8993H13.6471ZM22.8518 21.0899H24.3246C25.2775 21.0899 25.8623 20.5315 25.8623 19.565C25.8623 18.6415 25.2992 18.1261 24.3246 18.1261H23.0251V16.9449H25.1909C25.4292 16.9449 25.5808 16.816 25.5808 16.5798C25.5808 16.365 25.4292 16.2362 25.1909 16.2362H22.8302C22.462 16.2362 22.2454 16.4295 22.2454 16.816V20.51C22.2887 20.8966 22.4836 21.0899 22.8518 21.0899ZM23.0468 18.7919H24.2596C24.8227 18.7919 25.0826 19.0926 25.0826 19.5865C25.0826 20.1019 24.8227 20.4026 24.2596 20.4026H23.0468V18.7919ZM14.5351 25.514H13.084V24.0107H15.488C15.6396 24.0107 15.7696 23.9248 15.7696 23.7744C15.7696 23.6241 15.6613 23.5382 15.488 23.5382H13.019C12.7374 23.5382 12.5858 23.6885 12.5858 23.9677V27.9838C12.5858 28.263 12.7374 28.4134 13.019 28.4134H14.5351C15.4664 28.4134 16.0078 27.8764 16.0078 26.953C16.0078 26.0295 15.4664 25.514 14.5351 25.514ZM14.4701 27.9194H13.084V25.965H14.4701C15.1848 25.965 15.488 26.3087 15.488 26.9315C15.488 27.5543 15.2065 27.9194 14.4701 27.9194ZM18.0437 24.6979C17.6105 24.6979 17.199 24.8053 16.9825 24.9127C16.8308 24.9771 16.7659 25.0415 16.7659 25.1704C16.7659 25.2993 16.8742 25.3852 16.9825 25.3852C17.0474 25.3852 17.1124 25.3637 17.1774 25.3207C17.3506 25.2563 17.6755 25.1489 18.0004 25.1489C18.6285 25.1489 18.9317 25.4066 18.9317 25.965V26.3087C18.5418 26.2013 18.2603 26.1583 17.9138 26.1583C16.9825 26.1583 16.5276 26.6952 16.5276 27.2751C16.5276 27.9838 17.0691 28.4348 17.8921 28.4348C18.5852 28.4348 19.1266 28.1986 19.3215 28.0483C19.4082 27.9838 19.4298 27.9409 19.4298 27.8335V25.9436C19.4082 25.106 18.8884 24.6979 18.0437 24.6979ZM18.91 27.7476C18.6285 27.8979 18.2603 28.0053 17.9354 28.0053C17.329 28.0053 16.9825 27.7476 16.9825 27.2966C16.9825 26.8885 17.2857 26.6093 17.9354 26.6093C18.2603 26.6093 18.5418 26.6523 18.91 26.7597V27.7476ZM31.8183 17.3959C31.1686 17.3959 30.6488 17.6322 30.4539 17.7395C30.2806 17.8469 30.2589 17.9113 30.2589 18.1905V21.9275C30.2589 22.1637 30.4105 22.314 30.6271 22.314C30.8437 22.314 30.9953 22.1637 30.9953 21.9275V20.961C31.2119 21.0684 31.5584 21.1543 31.8833 21.1543C32.7496 21.1543 33.3344 20.5959 33.3994 19.7798C33.421 19.5006 33.421 19.0496 33.3994 18.7704C33.3344 17.9543 32.7496 17.3959 31.8183 17.3959ZM32.663 19.6724C32.6197 20.1449 32.3165 20.4456 31.7967 20.4456C31.5151 20.4456 31.1686 20.3597 30.9953 20.2308V18.2979C31.1686 18.1691 31.5151 18.0832 31.7967 18.0832C32.3381 18.0832 32.6197 18.4053 32.663 18.8563C32.6847 19.114 32.6847 19.4147 32.663 19.6724ZM20.2095 20.4885L18.9317 19.2214L20.1446 18.0187C20.2312 17.9328 20.2962 17.8254 20.2962 17.7181C20.2962 17.5462 20.1662 17.4174 19.9713 17.4174C19.863 17.4174 19.7764 17.4603 19.6897 17.5677L18.4336 18.7919C18.3686 18.8563 18.3036 18.8993 18.1953 18.8993H17.9354V17.8254C17.9354 17.5892 17.7838 17.4389 17.5672 17.4389C17.3506 17.4389 17.199 17.5892 17.199 17.8254V20.7248C17.199 20.961 17.3506 21.1113 17.5672 21.1113C17.7838 21.1113 17.9354 20.961 17.9354 20.7248V19.565H18.152C18.2386 19.565 18.3253 19.608 18.3902 19.6724L19.7114 20.9825C19.8197 21.0899 19.9063 21.1328 20.0146 21.1328C20.2095 21.1328 20.3395 21.004 20.3395 20.8107C20.3395 20.6818 20.2962 20.5959 20.2095 20.4885ZM36.843 19.7583C36.6698 19.7583 36.5831 19.8657 36.5182 19.9731C36.3882 20.2523 36.1283 20.4456 35.7385 20.4456C35.2187 20.4456 34.8938 20.1234 34.8505 19.6724C34.8288 19.4147 34.8288 19.1355 34.8505 18.8778C34.8938 18.4053 35.197 18.1046 35.7385 18.1046C36.1067 18.1046 36.3882 18.2979 36.5182 18.5771C36.5831 18.6845 36.6698 18.7919 36.843 18.7919C37.0596 18.7919 37.2112 18.663 37.2112 18.4483C37.2112 18.3409 37.1679 18.2335 37.1029 18.1046C36.8864 17.6966 36.4099 17.3959 35.7385 17.3959C34.8288 17.3959 34.2224 17.9758 34.1358 18.7919C34.1141 19.0711 34.1141 19.5221 34.1358 19.7798C34.2224 20.5959 34.8288 21.1758 35.7385 21.1758C36.4099 21.1758 36.8864 20.8536 37.1029 20.4456C37.1679 20.3167 37.2112 20.2093 37.2112 20.1019C37.1896 19.8872 37.0596 19.7583 36.843 19.7583ZM27.8982 17.3959C27.4867 17.3959 27.1185 17.5033 26.8803 17.5892C26.6853 17.6751 26.5987 17.7825 26.5987 17.9328C26.5987 18.1046 26.7286 18.255 26.9019 18.255C26.9885 18.255 27.0752 18.212 27.1835 18.1905C27.3351 18.1261 27.595 18.0617 27.8549 18.0617C28.418 18.0617 28.6562 18.2764 28.6562 18.706V19.0066C28.3314 18.9207 28.0498 18.8778 27.7466 18.8778C26.8153 18.8778 26.3605 19.4147 26.3605 19.9731C26.3605 20.6389 26.8803 21.1543 27.7682 21.1543C28.4613 21.1543 29.0028 20.9181 29.2193 20.7677C29.3276 20.7033 29.3493 20.6389 29.3493 20.4885V18.706C29.371 17.804 28.8295 17.3959 27.8982 17.3959ZM28.6562 20.3382C28.4396 20.4456 28.1364 20.5315 27.8549 20.5315C27.3784 20.5315 27.0752 20.3167 27.0752 19.9731C27.0752 19.6509 27.3351 19.3932 27.8549 19.3932C28.1364 19.3932 28.3747 19.4362 28.6779 19.5221V20.3382H28.6562ZM25.5808 26.5449L26.9885 25.1489C27.0535 25.0845 27.0752 25.0201 27.0752 24.9556C27.0752 24.8483 26.9885 24.7409 26.8586 24.7409C26.7936 24.7409 26.7286 24.7624 26.6637 24.8268L25.2775 26.2013C25.1909 26.2872 25.1259 26.3301 25.0177 26.3301H24.7794V25.0201C24.7794 24.8483 24.6928 24.7624 24.5412 24.7624C24.3896 24.7624 24.3029 24.8483 24.3029 25.0201V28.1986C24.3029 28.3704 24.3896 28.4563 24.5412 28.4563C24.6928 28.4563 24.7794 28.3704 24.7794 28.1986V26.7811H25.0393C25.1476 26.7811 25.2342 26.8241 25.2992 26.91L26.772 28.3704C26.8369 28.4348 26.9019 28.4563 26.9669 28.4563C27.0968 28.4563 27.1835 28.3489 27.1835 28.2415C27.1835 28.1556 27.1618 28.1127 27.0752 28.0268L25.5808 26.5449ZM23.0684 24.7194C22.9168 24.7194 22.8302 24.8053 22.8302 24.9771V26.2872H20.7943V24.9771C20.7943 24.8053 20.7077 24.7194 20.5561 24.7194C20.4045 24.7194 20.3178 24.8053 20.3178 24.9771V28.1556C20.3178 28.3275 20.4045 28.4134 20.5561 28.4134C20.7077 28.4134 20.7943 28.3275 20.7943 28.1556V26.7382H22.8302V28.1556C22.8302 28.3275 22.9168 28.4134 23.0684 28.4134C23.22 28.4134 23.3067 28.3275 23.3067 28.1556V24.9771C23.3067 24.8268 23.22 24.7194 23.0684 24.7194Z" fill="white"/>
<path d="M37.1666 38.1206L33.8529 38.7219C33.3114 38.8293 32.9432 39.3447 33.0298 39.8817C33.1381 40.4186 33.6579 40.7837 34.1994 40.6978L37.5131 40.0964C38.2928 39.9461 38.7909 40.4186 38.9858 40.9125C39.1808 41.4065 39.1375 42.0723 38.466 42.5018L33.6146 45.6374C33.1598 45.938 32.6183 45.938 32.1419 45.7018C31.6654 45.4441 31.3838 44.9716 31.3838 44.4347V36.7246C31.3838 35.436 30.7124 34.3192 29.5645 33.6964C28.4383 33.0736 27.0955 33.138 26.0126 33.8253L13.754 41.7072C12.3679 42.5877 11.8481 44.1984 12.4545 45.7233C13.061 47.2481 14.5554 48.0642 16.1798 47.785L26.8789 45.8736C27.4204 45.7662 27.7886 45.2508 27.7019 44.7139C27.5936 44.177 27.0738 43.8119 26.5324 43.8978L15.8332 45.8092C15.0319 45.9595 14.5554 45.487 14.3605 44.9931C14.1655 44.4991 14.2089 43.8333 14.8803 43.4038L27.1388 35.5219C27.5936 35.2213 28.1351 35.2213 28.6116 35.4575C29.088 35.7152 29.3696 36.1877 29.3696 36.7246V44.4347C29.3696 45.7233 30.041 46.84 31.1889 47.4629C31.7087 47.7421 32.2935 47.8924 32.8566 47.8924C33.5063 47.8924 34.1561 47.6991 34.7408 47.334L39.6139 44.1984C41.0001 43.3179 41.5199 41.7072 40.9134 40.1823C40.2853 38.6575 38.7909 37.8199 37.1666 38.1206ZM54.3199 40.1609C53.7134 38.636 52.219 37.8199 50.5946 38.0991L47.2809 38.7004C46.7395 38.8078 46.3713 39.3233 46.4579 39.8602C46.5662 40.3971 47.086 40.7622 47.6275 40.6763L50.9412 40.0749C51.7209 39.9246 52.219 40.3971 52.4139 40.8911C52.6089 41.385 52.5655 42.0508 51.8941 42.4803L47.0427 45.6374C46.5879 45.938 46.0464 45.938 45.5699 45.7018C45.0935 45.4441 44.8119 44.9716 44.8119 44.4347V34.2763C44.8119 33.7179 44.3571 33.2669 43.794 33.2669C43.2309 33.2669 42.776 33.7179 42.776 34.2763V44.4347C42.776 45.7233 43.4474 46.84 44.5953 47.4629C45.1151 47.7421 45.6999 47.8924 46.263 47.8924C46.9128 47.8924 47.5625 47.6991 48.1473 47.334L53.0204 44.1984C54.4065 43.2964 54.9263 41.6857 54.3199 40.1609Z" fill="white"/>
</g>
<defs>
<clipPath id="clip0">
<rect width="42.6667" height="32" fill="white" transform="translate(12 16)"/>
</clipPath>
</defs>
</svg>
