<svg width="42" height="47" viewBox="0 0 42 47" fill="none" xmlns="http://www.w3.org/2000/svg">
<path fill-rule="evenodd" clip-rule="evenodd" d="M23.8363 18.0845C23.6757 18.0836 23.5166 18.1144 23.368 18.1751C23.2193 18.2357 23.0841 18.3251 22.97 18.438C22.8559 18.5509 22.7652 18.6852 22.7029 18.8332C22.6407 18.9812 22.6083 19.14 22.6075 19.3005C22.6077 19.5384 22.6786 19.7709 22.811 19.9686L23.1566 20.5421C23.0475 20.636 22.96 20.7523 22.8999 20.883C22.8398 21.0138 22.8085 21.156 22.8083 21.2999C22.808 21.4438 22.8388 21.5861 22.8984 21.7171C22.9581 21.848 23.0453 21.9646 23.154 22.0589L22.811 22.631C22.683 22.823 22.6087 23.0534 22.6087 23.2992C22.6087 23.9725 23.1591 24.5165 23.8363 24.5165C24.5147 24.5165 25.0638 23.9725 25.0638 23.3005C25.0638 22.8013 24.4852 21.6224 24.4852 21.6224V20.9798C24.4852 20.9798 25.0638 19.7971 25.0638 19.3018C25.0638 18.6298 24.5134 18.0845 23.8363 18.0845ZM23.8363 16.9402C25.1495 16.9402 26.2171 17.9987 26.2171 19.3018C26.2171 19.76 26.0827 20.1862 25.8523 20.5485H36.8987C37.211 20.5485 37.4708 20.8083 37.4708 21.1245V21.4765C37.4708 21.7926 37.211 22.0525 36.8987 22.0525H35.2692V22.5478H36.082V23.2416H35.2692V23.9648H36.082V25.2896H35.2692V24.6906H34.0686V25.2896H33.2571V23.9648H34.0686V23.2416H33.2571V22.5478H34.0686V22.0525H27.8491V22.0538H25.8523C26.0827 22.4147 26.2171 22.8397 26.2171 23.2992C26.2171 24.6048 25.1495 25.6608 23.8363 25.6608C23.5247 25.6625 23.216 25.6027 22.9276 25.4848C22.6392 25.367 22.377 25.1934 22.1558 24.974C21.9346 24.7547 21.7589 24.4938 21.6388 24.2064C21.5186 23.919 21.4563 23.6107 21.4555 23.2992C21.4555 22.7872 21.6231 22.3174 21.9035 21.9309C21.7978 21.8631 21.7108 21.7699 21.6506 21.6597C21.5903 21.5496 21.5588 21.426 21.5588 21.3005C21.5588 21.1749 21.5903 21.0514 21.6506 20.9412C21.7108 20.8311 21.7978 20.7378 21.9035 20.6701C21.6131 20.2724 21.4563 19.7929 21.4555 19.3005C21.4555 17.9987 22.5191 16.9402 23.8363 16.9402ZM9.83434 18.2112L14.3783 22.6374V19.7792L9.83434 15.376V18.2099V18.2112ZM9.83434 14.503L14.3783 18.928V16.071L9.83434 11.6678V14.503ZM9.83434 10.7936L14.3783 15.2224V12.3642L9.83434 7.96096V10.7936ZM18.8519 0.400002V4.91584L18.2529 5.49952V0.400002H17.5668V6.16384L16.9652 6.74624V0.400002H16.2817V7.40928L15.6801 7.99296V0.400002H14.9953V11.513L19.5367 7.08672V0.400002H18.8519ZM9.83434 22.0026L14.3783 26.4301V23.4016L9.83434 18.9997V22.0026ZM14.9953 22.6374L19.5367 18.2112V15.376L14.9953 19.7792V22.6362V22.6374ZM13.6948 0.400002V7.99424L13.0907 7.40928V0.400002H12.4071V6.74624L11.8055 6.16256V0.400002H11.122V5.49952L10.5179 4.91584V0.400002H9.83434V7.08672L14.3783 11.513V0.400002H13.6948ZM14.9953 18.928L19.5367 14.503V11.6678L14.9953 16.071V18.928ZM14.9953 15.2211L19.5367 10.7936V7.96096L14.9953 12.3642V15.2211ZM14.9953 23.4003L19.5367 18.9997V22.0026L14.9953 26.4301V23.4016V23.4003Z" fill="#FFCB05"/>
<path fill-rule="evenodd" clip-rule="evenodd" d="M29.2994 42.3315C29.5784 42.1946 29.8549 42.0525 30.1262 41.9027V35.4694H29.2994V42.3302V42.3315ZM17.8408 38.4045H18.6421V30.3405H17.8408V38.4045ZM35.7352 37.1245C36.0526 36.7187 36.3522 36.2989 36.6338 35.8662V32.6048H35.7352V37.1232V37.1245ZM38.3874 31.6499C38.4731 31.7511 38.5474 31.7818 38.6114 31.7664C38.7573 31.3299 38.8878 30.8858 38.9992 30.4352H35.7352V31.1597H36.1858C36.9922 31.1341 37.8971 31.1239 38.3874 31.6499ZM32.7221 29.2039L31.8517 33.6608L32.7221 34.4826V29.2039ZM15.9912 43.3773C15.7224 43.2966 15.4574 43.2096 15.1938 43.1162V28.0032H18.6421C20.0488 28.0032 20.8949 28.5498 21.1803 29.6518C21.4875 28.5997 22.2978 28.0723 23.6354 28.0723H24.4187C25.531 28.0723 26.2862 28.4384 26.6856 29.1629L26.509 28.2669H39.3986C39.3704 28.5101 39.3358 28.7495 39.2962 28.9901H33.6181V39.4093C33.1291 39.8547 32.6133 40.2733 32.077 40.665V35.6935C32.077 34.8307 31.908 34.3008 31.0376 33.9962L32.077 29.031H30.1403L29.8331 34.4557H29.6078L29.2994 29.031H27.4613L28.3739 33.9974C27.547 34.2752 27.3499 34.8858 27.3499 35.6935V43.1392C26.9864 43.2672 26.6178 43.3824 26.2427 43.4874V35.3862H24.4187V43.8957C24.1602 43.9405 23.8978 43.9789 23.6354 44.0122V30.48H24.4187V34.6106H26.2427V30.7424C26.2427 30.0474 26.1147 29.561 25.8498 29.2819C25.3314 28.7674 24.3214 28.8659 23.6354 28.8659C22.9621 28.8659 22.4834 29.0054 22.2184 29.2819C21.9522 29.561 21.8101 30.0474 21.8101 30.7424V44.153C21.6437 44.1568 21.4747 44.1606 21.3045 44.1606L21.0395 44.1568V39.5002C20.6645 40.3283 19.8645 40.7418 18.6421 40.7418V43.9674C18.3733 43.929 18.107 43.8829 17.8408 43.8317V39.9661C17.9688 39.9661 18.1083 39.9661 18.2491 39.9789C18.8955 39.9789 19.6648 39.9789 20.0859 39.559C20.3675 39.2954 20.493 38.8243 20.493 38.1434V30.6029C20.493 29.9232 20.3662 29.4496 20.0859 29.1872C19.8069 28.921 19.3294 28.7827 18.6421 28.7827H15.9912V43.3786V43.3773ZM21.3045 5.84769C20.9781 5.84769 20.653 5.85665 20.3317 5.87073V7.24673C20.653 7.23137 20.9781 7.22497 21.3045 7.22497C31.8056 7.22497 40.3189 15.6666 40.3189 26.0807C40.3189 36.496 31.8056 44.9389 21.3045 44.9389C10.8046 44.9389 2.29136 36.496 2.29136 26.0807C2.29136 20.3015 4.91408 15.1303 9.04208 11.6704V9.91169C4.1 13.6032 0.903839 19.4733 0.903839 26.0807C0.903839 37.255 10.0379 46.3149 21.3045 46.3149C32.5723 46.3149 41.7064 37.255 41.7064 26.0807C41.7064 14.9063 32.571 5.84769 21.3045 5.84769ZM11.9413 33.6339C10.1595 31.9085 8.96528 30.777 8.00784 29.8285C6.1864 28.0199 5.70512 26.7949 5.70512 26.7949V29.3344C5.70512 32.1466 6.99152 33.9437 7.64816 34.6771L12.3522 39.2416C13.6629 40.5152 13.8946 41.1207 14.1864 41.8451V38.3994C14.1864 35.4976 12.7016 34.3712 11.9413 33.6339ZM8.00784 22.5491C8.96528 23.4963 10.1582 24.6291 11.9413 26.3559C12.7016 27.0918 14.1864 28.2183 14.1864 31.12V34.3815C13.8946 33.657 13.6616 33.2346 12.3522 31.9622L7.65072 27.3798C6.93904 26.6733 5.70512 24.8659 5.70512 22.055V19.1136C5.70512 19.1136 6.1864 20.7405 8.00912 22.5491H8.00784Z" fill="white"/>
</svg>
