<svg width="25" height="23" viewBox="0 0 25 23" fill="none" xmlns="http://www.w3.org/2000/svg">
<path d="M4.39679 22.4335L12.2592 14.4559L20.3846 22.5987L23.7897 19.2271L15.7469 11.1823L17.2925 9.68667V6.49563L18.264 5.67387V8.17371L19.5139 9.19323L23.2483 5.45883L24.4483 6.38043C25.1558 3.76539 21.0595 -2.17317 17.6707 1.11675L13.7232 5.03163L14.5296 6.00123L12.5232 7.95963L10.5821 6.05115L11.6016 5.12955L7.27583 0.951629C4.01855 -1.72965 0.68063 2.35035 0.56543 6.33051L1.74815 5.34459L5.38271 9.25851L6.68255 8.17371V5.77179L7.48895 6.37947V9.52155L9.06719 11.1017L1.04159 19.0121L4.39679 22.4345V22.4335Z" fill="black"/>
</svg>
