<svg width="32" height="32" viewBox="0 0 32 32" fill="none" xmlns="http://www.w3.org/2000/svg">
<rect opacity="0.72" width="32" height="32" rx="16" fill="#F7F8FC"/>
<path d="M15.9997 8.59511C14.8957 7.58911 13.4877 7.03711 12.0037 7.03711C10.4257 7.03711 8.93172 7.66011 7.79072 8.79511C5.43772 11.1581 5.43872 14.8541 7.79272 17.2071L15.1247 24.5391C15.2947 24.8381 15.6227 25.0311 15.9997 25.0311C16.3217 25.0311 16.6087 24.8681 16.7917 24.6221L24.2067 17.2071C26.5607 14.8531 26.5607 11.1581 24.2047 8.79111C23.0677 7.66011 21.5737 7.03711 19.9957 7.03711C18.5127 7.03711 17.1037 7.58911 15.9997 8.59511ZM22.7907 10.2051C24.3537 11.7761 24.3547 14.2301 22.7927 15.7931L15.9997 22.5861L9.20672 15.7931C7.64472 14.2301 7.64572 11.7761 9.20472 10.2091C9.96472 9.45311 10.9587 9.03711 12.0037 9.03711C13.0487 9.03711 14.0387 9.45311 14.7927 10.2071L15.2927 10.7071C15.6837 11.0981 16.3157 11.0981 16.7067 10.7071L17.2067 10.2071C18.7187 8.69811 21.2807 8.70211 22.7907 10.2051Z" fill="#78859B"/>
</svg>
