<svg width="64" height="64" viewBox="0 0 64 64" fill="none" xmlns="http://www.w3.org/2000/svg">
<rect width="64" height="64" fill="#1E4679"/>
<path fill-rule="evenodd" clip-rule="evenodd" d="M29.1705 22.6667C29.3067 22.6667 29.3703 22.5439 29.3113 22.3905L29.0093 21.6095C28.9502 21.4589 28.7913 21.3333 28.655 21.3333H17.4962C17.36 21.3333 17.2964 21.4561 17.3554 21.6095L17.6574 22.3905C17.7165 22.5411 17.8754 22.6667 18.0117 22.6667H29.1705Z" fill="#FEFEFE"/>
<path fill-rule="evenodd" clip-rule="evenodd" d="M29.0452 24.2762C28.9928 24.1255 28.8515 24 28.7304 24H18.8114C18.6903 24 18.6338 24.1255 18.6863 24.2762L18.9547 25.0572C19.0072 25.2078 19.1485 25.3333 19.2696 25.3333H29.1886C29.3097 25.3333 29.3662 25.2106 29.3137 25.0572L29.0452 24.2762Z" fill="#FEFEFE"/>
<path fill-rule="evenodd" clip-rule="evenodd" d="M32.9733 26.9428C32.9077 26.7922 32.7311 26.6667 32.5798 26.6667H20.1809C20.0296 26.6667 19.9589 26.7894 20.0245 26.9428L20.3626 27.7238C20.4281 27.8745 20.6047 28 20.7561 28H33.1524C33.3038 28 33.3744 27.8773 33.3088 27.7238L32.9733 26.9428Z" fill="#FEFEFE"/>
<path fill-rule="evenodd" clip-rule="evenodd" d="M34.3066 29.6095C34.241 29.4589 34.0644 29.3333 33.913 29.3333H21.5143C21.3629 29.3333 21.2923 29.4561 21.3579 29.6095L21.6934 30.3905C21.759 30.5411 21.9357 30.6667 22.0871 30.6667H34.4857C34.6371 30.6667 34.7078 30.5439 34.6422 30.3905L34.3066 29.6095Z" fill="#FEFEFE"/>
<path fill-rule="evenodd" clip-rule="evenodd" d="M35.6399 32.5535C35.5743 32.2516 35.3977 32 35.2463 32H22.8476C22.6962 32 22.6256 32.246 22.6912 32.5535L23.0268 34.1188C23.0924 34.4207 23.269 34.6667 23.4204 34.6667H35.819C35.9704 34.6667 36.0411 34.4207 35.9755 34.1188L35.6399 32.5535Z" fill="#FEFEFE"/>
<path fill-rule="evenodd" clip-rule="evenodd" d="M46.6667 34.6667C48.1375 34.6667 49.3333 33.4708 49.3333 32C49.3333 30.5292 48.1397 29.3333 46.6667 29.3333C45.1936 29.3333 44 30.527 44 32C44 33.4708 45.1914 34.6667 46.6667 34.6667Z" fill="#EE3142"/>
<path fill-rule="evenodd" clip-rule="evenodd" d="M33.0739 18.6667C33.2167 18.6667 33.3333 18.5297 33.3333 18.362V17.638C33.3333 17.4703 33.2167 17.3333 33.0739 17.3333H14.9261C14.7833 17.3333 14.6667 17.4703 14.6667 17.638V18.362C14.6667 18.5297 14.7833 18.6667 14.9261 18.6667H33.0739Z" fill="#FEFEFE"/>
<path fill-rule="evenodd" clip-rule="evenodd" d="M24.1666 36C24.0272 36 23.9622 36.0893 24.0226 36.1988L31.234 49.2512C31.2944 49.3607 31.4407 49.3607 31.5011 49.2512L38.09 37.1685C38.1504 37.059 38.313 36.9677 38.4524 36.9677H49.0802C49.2195 36.9677 49.3333 36.8683 49.3333 36.7465V36.2211C49.3333 36.0994 49.2195 36 49.0802 36H24.1666Z" fill="#FEFEFE"/>
<path fill-rule="evenodd" clip-rule="evenodd" d="M49.094 17.3333H40.3829C40.2499 17.3333 40.1413 17.4521 40.1413 17.5975V18.2251C40.1413 18.3705 40.2499 18.4892 40.3829 18.4892H41.6748C41.9961 18.511 43.8509 18.5207 43.144 20.8882L37.3536 34.4268C37.2982 34.5576 37.3602 34.6667 37.4932 34.6667H39.4721C39.6051 34.6667 39.7602 34.5576 39.8178 34.4268L46.0691 20.1322C46.355 19.4876 46.6985 19.0514 47.0996 18.826C47.5007 18.6031 48.0237 18.4868 48.7062 18.4868H49.0918C49.2247 18.4868 49.3333 18.3681 49.3333 18.2227V17.595C49.3355 17.4521 49.2269 17.3333 49.094 17.3333Z" fill="#FEFEFE"/>
</svg>
