<svg width="18" height="18" viewBox="0 0 18 18" fill="none" xmlns="http://www.w3.org/2000/svg">
<path d="M15.6375 6.10082C15.6567 5.95582 15.6667 5.81082 15.6667 5.66666C15.6667 3.68416 13.8809 2.09332 11.8992 2.36249C11.3217 1.33499 10.2217 0.666656 9.00002 0.666656C7.77835 0.666656 6.67835 1.33499 6.10085 2.36249C4.11502 2.09332 2.33335 3.68416 2.33335 5.66666C2.33335 5.81082 2.34335 5.95582 2.36252 6.10082C1.33502 6.67916 0.666687 7.77916 0.666687 8.99999C0.666687 10.2208 1.33502 11.3208 2.36252 11.8992C2.34335 12.0442 2.33335 12.1892 2.33335 12.3333C2.33335 14.3158 4.11502 15.9025 6.10085 15.6375C6.67835 16.665 7.77835 17.3333 9.00002 17.3333C10.2217 17.3333 11.3217 16.665 11.8992 15.6375C13.8809 15.9025 15.6667 14.3158 15.6667 12.3333C15.6667 12.1892 15.6567 12.0442 15.6375 11.8992C16.665 11.3208 17.3334 10.2208 17.3334 8.99999C17.3334 7.77916 16.665 6.67916 15.6375 6.10082ZM8.12919 12.68L5.07335 9.58499L6.26002 8.41499L8.14085 10.32L11.7467 6.74166L12.92 7.92499L8.12919 12.68Z" fill="white"/>
</svg>
