<svg width="48" height="48" viewBox="0 0 48 48" fill="none" xmlns="http://www.w3.org/2000/svg">
<rect width="48" height="48" fill="#2051B2"/>
<path d="M38.1943 16.8564C38.1943 13.0668 35.0779 9.99481 31.2355 9.99481H21.4075C18.2359 9.99481 15.5311 12.1032 14.7115 15.0156H26.5915C31.1623 15.0156 33.1015 17.1132 33.1015 22.0344V33.156C36.0487 32.3448 38.1943 29.6688 38.1943 26.5524V16.8564Z" fill="white"/>
<path d="M9.59998 31.3164C9.59998 35.106 12.714 38.1768 16.5576 38.1768H26.3856C29.5572 38.1768 32.262 36.0696 33.0828 33.156H21.2028C16.632 33.156 14.6928 31.0584 14.6928 26.1372V15.0156C11.7444 15.8268 9.59998 18.504 9.59998 21.6204V31.3164Z" fill="white"/>
<path d="M28.0368 23.6928H27.1164V21.4872H28.0368C29.16 21.4872 29.4648 22.0212 29.4648 22.5864C29.4648 23.1504 29.0568 23.6928 28.0368 23.6928ZM27.1164 18.2748H27.852C29.0976 18.2748 29.16 19.0284 29.16 19.26C29.16 19.602 28.9764 20.238 27.9132 20.238H27.1164V18.276V18.2748ZM25.5036 22.122V24.0444C25.1148 23.8152 24.6672 23.6328 24.198 23.4324C23.6868 23.2092 23.136 22.9272 23.136 22.2912C23.136 21.9672 23.34 21.4872 24.3204 21.4872H26.1372L25.5036 22.122ZM19.254 27.0384H18.498V24.4476H19.254C20.1936 24.4476 20.622 25.0104 20.622 25.6956C20.622 26.3316 20.2356 27.0384 19.254 27.0384ZM29.508 20.832V20.802C30.0588 20.6304 30.7944 20.178 30.7944 18.9876C30.7944 17.6496 29.6904 17.0352 28.1388 17.0352H25.5036V20.2392H23.952C21.8688 20.2392 21.4404 21.6792 21.4404 22.4652C21.4404 23.5812 22.0944 24.0756 23.3004 24.6696C24.0324 25.0308 24.9108 25.2528 24.9108 26.0796C24.9108 26.514 24.5028 27.0384 23.6256 27.0384H21.9924C22.2372 26.6244 22.338 26.1708 22.338 25.7784C22.338 25.2648 22.1544 23.2092 19.254 23.2092H16.884V31.1352H18.498V27.6816L19.1508 28.326H23.5644C25.6248 28.326 26.6052 27.2796 26.6052 26.0304C26.6052 25.5876 26.5236 25.2324 26.3808 24.9432H28.0356C30.588 24.9432 31.1796 23.6928 31.1796 22.7148C31.1796 21.7188 30.5268 20.9832 29.5068 20.832H29.508Z" fill="white"/>
</svg>
