<svg width="97" height="32" viewBox="0 0 97 32" fill="none" xmlns="http://www.w3.org/2000/svg">
<path d="M53.2278 19.9105L56.0732 22.8301L52.1392 23.4239L50.7536 21.8404C49.4505 22.5496 48.0072 22.9043 46.4237 22.9043C43.5206 22.9043 41.2278 21.9971 39.5453 20.1826C37.9948 18.5331 37.2195 16.5455 37.2195 14.2197C37.2195 13.0651 37.4422 11.9599 37.8876 10.9042C38.3494 9.83207 38.9763 8.91661 39.768 8.15784C41.4835 6.49186 43.6608 5.65886 46.3 5.65886C47.5206 5.65886 48.7082 5.8733 49.8629 6.30216C51.0175 6.71454 52.0155 7.32485 52.8567 8.1331C54.5557 9.76609 55.4052 11.8362 55.4052 14.3434C55.4052 15.5146 55.1825 16.6197 54.7371 17.6589C54.3742 18.5331 53.8711 19.2837 53.2278 19.9105ZM44.9886 15.9517L49.0216 15.4321L50.1598 16.6692C50.6711 15.9434 50.9268 15.1352 50.9268 14.2445C50.9268 13.7331 50.8031 13.197 50.5557 12.6362C50.3247 12.0754 50.0031 11.5888 49.5907 11.1764C49.1619 10.7475 48.6423 10.4176 48.032 10.1867C47.4381 9.93929 46.8608 9.81558 46.3 9.81558C44.9969 9.81558 43.9082 10.2692 43.034 11.1764C42.1433 12.1001 41.6979 13.2053 41.6979 14.4919C41.6979 15.696 42.1103 16.694 42.935 17.4857C43.8093 18.327 44.9227 18.7476 46.2752 18.7476C46.7041 18.7476 47.1495 18.6898 47.6113 18.5744L44.9886 15.9517Z" fill="#0F0208"/>
<path d="M65.8565 12.5372V11.4733H69.8153V22.5331H65.8565V21.3208C65.0977 22.3764 63.9513 22.9043 62.4173 22.9043C60.8668 22.9043 59.539 22.3187 58.4338 21.1476C57.3781 20.0259 56.8503 18.6733 56.8503 17.0898C56.8503 15.2754 57.4194 13.7991 58.5575 12.6609C59.5967 11.6218 60.9245 11.1022 62.541 11.1022C63.8936 11.1022 64.9988 11.5805 65.8565 12.5372ZM63.4317 14.4671C62.772 14.4671 62.1946 14.7063 61.6998 15.1847C61.1719 15.696 60.908 16.2981 60.908 16.9909C60.908 17.7166 61.1637 18.3187 61.675 18.7971C62.2029 19.2919 62.7967 19.5393 63.4565 19.5393C64.1328 19.5393 64.7266 19.2837 65.2379 18.7723C65.7328 18.2775 65.9802 17.6836 65.9802 16.9909C65.9802 16.2816 65.7245 15.6795 65.2132 15.1847C64.7019 14.7063 64.108 14.4671 63.4317 14.4671Z" fill="#0F0208"/>
<path d="M72.3195 28.1992L76.0308 21.0239L70.6865 11.4733H75.2886L78.2329 17.1393L81.103 11.4733H85.6309L76.7484 28.1992H72.3195Z" fill="#0F0208"/>
<path d="M86.4849 4.49597H90.4436V22.5331H86.4849V4.49597Z" fill="#0F0208"/>
<path d="M92.6347 11.4733H96.5935V22.5331H92.6347V11.4733ZM93.0306 8.45475C92.6017 8.00939 92.3873 7.48155 92.3873 6.87124C92.3873 6.26093 92.6017 5.74134 93.0306 5.31247C93.4759 4.86711 94.0038 4.64443 94.6141 4.64443C95.2244 4.64443 95.744 4.86711 96.1728 5.31247C96.6182 5.74134 96.8409 6.26093 96.8409 6.87124C96.8409 7.48155 96.6182 8.00939 96.1728 8.45475C95.744 8.88362 95.2244 9.09805 94.6141 9.09805C94.0038 9.09805 93.4759 8.88362 93.0306 8.45475Z" fill="#0F0208"/>
<path d="M0 4C0 1.79086 1.79086 0 4 0H24.277C26.4861 0 28.277 1.79086 28.277 4V24.277C28.277 26.4861 26.4861 28.277 24.277 28.277H4C1.79086 28.277 0 26.4861 0 24.277V4Z" fill="#5AB677"/>
<rect x="14.1385" y="19.5032" width="8.83656" height="17.6731" rx="2" transform="rotate(-45 14.1385 19.5032)" fill="#5AB677"/>
<path fill-rule="evenodd" clip-rule="evenodd" d="M21.2076 12.1727C21.2076 12.1727 21.2076 12.1727 21.2076 12.1727L15.5224 6.81662C14.7533 6.09207 13.5533 6.09076 12.7827 6.81362L7.06936 12.1727C7.06934 12.1727 7.06932 12.1727 7.0693 12.1727C7.06925 12.1727 7.06921 12.1727 7.06921 12.1728V12.1728V19.213C7.06921 20.3176 7.96464 21.213 9.06921 21.213H19.2077C20.3123 21.213 21.2077 20.3176 21.2077 19.213V12.1728V12.1728C21.2077 12.1727 21.2077 12.1727 21.2076 12.1727Z" fill="white"/>
</svg>
