<svg width="48" height="48" viewBox="0 0 48 48" fill="none" xmlns="http://www.w3.org/2000/svg">
<rect width="48" height="48" fill="#FFF200"/>
<path d="M16.3968 35.4335L24.2592 27.4559L32.3846 35.5987L35.7897 32.2271L27.7469 24.1823L29.2925 22.6867V19.4956L30.264 18.6739V21.1737L31.5139 22.1932L35.2483 18.4588L36.4483 19.3804C37.1558 16.7654 33.0595 10.8268 29.6707 14.1167L25.7232 18.0316L26.5296 19.0012L24.5232 20.9596L22.5821 19.0511L23.6016 18.1295L19.2758 13.9516C16.0186 11.2703 12.6806 15.3503 12.5654 19.3305L13.7482 18.3446L17.3827 22.2585L18.6826 21.1737V18.7718L19.489 19.3795V22.5215L21.0672 24.1017L13.0416 32.0121L16.3968 35.4345V35.4335Z" fill="black"/>
</svg>
