<svg width="20" height="33" viewBox="0 0 20 33" fill="none" xmlns="http://www.w3.org/2000/svg">
<path d="M19.3327 12.5005C17.5063 17.3867 11.8268 19.9491 6.64449 18.227C1.46214 16.5021 -1.25845 11.15 0.570961 6.26102C2.39743 1.37481 8.07684 -1.18755 13.2592 0.534554C18.4386 2.25943 21.1592 7.6143 19.3327 12.5005Z" fill="url(#paint0_linear)"/>
<path d="M19.8971 24.6586L19.9001 25.607C19.9059 27.4095 15.4618 28.8876 9.96476 28.907C4.47064 28.9264 0.0147554 27.4788 0.0059319 25.6763L0.00299072 24.7307L19.8971 24.6586Z" fill="url(#paint1_linear)"/>
<path d="M19.8971 24.6585C19.903 26.4638 15.4559 27.9391 9.96182 27.9557C4.4677 27.9723 0.00593773 26.5275 0.00299655 24.7278C-0.0028858 22.9225 4.44417 21.4444 9.94123 21.425C15.4324 21.4112 19.8912 22.8559 19.8971 24.6585Z" fill="url(#paint2_linear)"/>
<path d="M0.00299072 31.9102C0.00299072 31.6467 4.45593 31.3833 9.95299 31.3833C15.4471 31.3833 19.9001 31.644 19.9001 31.9102V32.4731C19.9001 32.7338 15.4471 32.9972 9.95299 32.9972C4.45887 32.9972 0.00299072 32.7366 0.00299072 32.4731V31.9102Z" fill="url(#paint3_linear)"/>
<defs>
<linearGradient id="paint0_linear" x1="7.52803" y1="12.4488" x2="21.5301" y2="-7.48745" gradientUnits="userSpaceOnUse">
<stop stop-color="#DB1E33"/>
<stop offset="1" stop-color="#F57E21"/>
</linearGradient>
<linearGradient id="paint1_linear" x1="13.3217" y1="26.7507" x2="21.9013" y2="26.9879" gradientUnits="userSpaceOnUse">
<stop stop-color="#A11C34"/>
<stop offset="1" stop-color="#C22034"/>
</linearGradient>
<linearGradient id="paint2_linear" x1="8.70193" y1="25.2821" x2="28.77" y2="14.6478" gradientUnits="userSpaceOnUse">
<stop stop-color="#DB1E33"/>
<stop offset="0.8102" stop-color="#F08128"/>
<stop offset="1" stop-color="#F79421"/>
</linearGradient>
<linearGradient id="paint3_linear" x1="7.8664" y1="32.2703" x2="-4.94571" y2="32.812" gradientUnits="userSpaceOnUse">
<stop stop-color="#A11C34"/>
<stop offset="1" stop-color="#C22034"/>
</linearGradient>
</defs>
</svg>
