<svg width="64" height="64" viewBox="0 0 64 64" fill="none" xmlns="http://www.w3.org/2000/svg">
<rect width="64" height="64" fill="#194F2E"/>
<path fill-rule="evenodd" clip-rule="evenodd" d="M34.8363 24.0845C34.6757 24.0836 34.5166 24.1144 34.368 24.1751C34.2193 24.2357 34.0841 24.3251 33.97 24.438C33.8559 24.5509 33.7652 24.6852 33.7029 24.8332C33.6407 24.9812 33.6083 25.14 33.6075 25.3005C33.6077 25.5384 33.6786 25.7709 33.811 25.9686L34.1566 26.5421C34.0475 26.636 33.96 26.7523 33.8999 26.883C33.8398 27.0138 33.8085 27.156 33.8083 27.2999C33.808 27.4438 33.8388 27.5861 33.8984 27.7171C33.9581 27.848 34.0453 27.9646 34.154 28.0589L33.811 28.631C33.683 28.823 33.6087 29.0534 33.6087 29.2992C33.6087 29.9725 34.1591 30.5165 34.8363 30.5165C35.5147 30.5165 36.0638 29.9725 36.0638 29.3005C36.0638 28.8013 35.4852 27.6224 35.4852 27.6224V26.9798C35.4852 26.9798 36.0638 25.7971 36.0638 25.3018C36.0638 24.6298 35.5134 24.0845 34.8363 24.0845ZM34.8363 22.9402C36.1495 22.9402 37.2171 23.9987 37.2171 25.3018C37.2171 25.76 37.0827 26.1862 36.8523 26.5485H47.8987C48.211 26.5485 48.4708 26.8083 48.4708 27.1245V27.4765C48.4708 27.7926 48.211 28.0525 47.8987 28.0525H46.2692V28.5478H47.082V29.2416H46.2692V29.9648H47.082V31.2896H46.2692V30.6906H45.0686V31.2896H44.2571V29.9648H45.0686V29.2416H44.2571V28.5478H45.0686V28.0525H38.8491V28.0538H36.8523C37.0827 28.4147 37.2171 28.8397 37.2171 29.2992C37.2171 30.6048 36.1495 31.6608 34.8363 31.6608C34.5247 31.6625 34.216 31.6027 33.9276 31.4848C33.6392 31.367 33.377 31.1934 33.1558 30.974C32.9346 30.7547 32.7589 30.4938 32.6388 30.2064C32.5186 29.919 32.4563 29.6107 32.4555 29.2992C32.4555 28.7872 32.6231 28.3174 32.9035 27.9309C32.7978 27.8631 32.7108 27.7699 32.6506 27.6597C32.5903 27.5496 32.5588 27.426 32.5588 27.3005C32.5588 27.1749 32.5903 27.0514 32.6506 26.9412C32.7108 26.8311 32.7978 26.7378 32.9035 26.6701C32.6131 26.2724 32.4563 25.7929 32.4555 25.3005C32.4555 23.9987 33.5191 22.9402 34.8363 22.9402ZM20.8343 24.2112L25.3783 28.6374V25.7792L20.8343 21.376V24.2099V24.2112ZM20.8343 20.503L25.3783 24.928V22.071L20.8343 17.6678V20.503ZM20.8343 16.7936L25.3783 21.2224V18.3642L20.8343 13.961V16.7936ZM29.8519 6.4V10.9158L29.2529 11.4995V6.4H28.5668V12.1638L27.9652 12.7462V6.4H27.2817V13.4093L26.6801 13.993V6.4H25.9953V17.513L30.5367 13.0867V6.4H29.8519ZM20.8343 28.0026L25.3783 32.4301V29.4016L20.8343 24.9997V28.0026ZM25.9953 28.6374L30.5367 24.2112V21.376L25.9953 25.7792V28.6362V28.6374ZM24.6948 6.4V13.9942L24.0907 13.4093V6.4H23.4071V12.7462L22.8055 12.1626V6.4H22.122V11.4995L21.5179 10.9158V6.4H20.8343V13.0867L25.3783 17.513V6.4H24.6948ZM25.9953 24.928L30.5367 20.503V17.6678L25.9953 22.071V24.928ZM25.9953 21.2211L30.5367 16.7936V13.961L25.9953 18.3642V21.2211ZM25.9953 29.4003L30.5367 24.9997V28.0026L25.9953 32.4301V29.4016V29.4003Z" fill="#FFCB05"/>
<path fill-rule="evenodd" clip-rule="evenodd" d="M40.2994 48.3315C40.5784 48.1946 40.8549 48.0525 41.1262 47.9027V41.4694H40.2994V48.3302V48.3315ZM28.8408 44.4045H29.6421V36.3405H28.8408V44.4045ZM46.7352 43.1245C47.0526 42.7187 47.3522 42.2989 47.6338 41.8662V38.6048H46.7352V43.1232V43.1245ZM49.3874 37.6499C49.4731 37.7511 49.5474 37.7818 49.6114 37.7664C49.7573 37.3299 49.8878 36.8858 49.9992 36.4352H46.7352V37.1597H47.1858C47.9922 37.1341 48.8971 37.1239 49.3874 37.6499ZM43.7221 35.2039L42.8517 39.6608L43.7221 40.4826V35.2039ZM26.9912 49.3773C26.7224 49.2966 26.4574 49.2096 26.1938 49.1162V34.0032H29.6421C31.0488 34.0032 31.8949 34.5498 32.1803 35.6518C32.4875 34.5997 33.2978 34.0723 34.6354 34.0723H35.4187C36.531 34.0723 37.2862 34.4384 37.6856 35.1629L37.509 34.2669H50.3986C50.3704 34.5101 50.3358 34.7495 50.2962 34.9901H44.6181V45.4093C44.1291 45.8547 43.6133 46.2733 43.077 46.665V41.6935C43.077 40.8307 42.908 40.3008 42.0376 39.9962L43.077 35.031H41.1403L40.8331 40.4557H40.6078L40.2994 35.031H38.4613L39.3739 39.9974C38.547 40.2752 38.3499 40.8858 38.3499 41.6935V49.1392C37.9864 49.2672 37.6178 49.3824 37.2427 49.4874V41.3862H35.4187V49.8957C35.1602 49.9405 34.8978 49.9789 34.6354 50.0122V36.48H35.4187V40.6106H37.2427V36.7424C37.2427 36.0474 37.1147 35.561 36.8498 35.2819C36.3314 34.7674 35.3214 34.8659 34.6354 34.8659C33.9621 34.8659 33.4834 35.0054 33.2184 35.2819C32.9522 35.561 32.8101 36.0474 32.8101 36.7424V50.153C32.6437 50.1568 32.4747 50.1606 32.3045 50.1606L32.0395 50.1568V45.5002C31.6645 46.3283 30.8645 46.7418 29.6421 46.7418V49.9674C29.3733 49.929 29.107 49.8829 28.8408 49.8317V45.9661C28.9688 45.9661 29.1083 45.9661 29.2491 45.9789C29.8955 45.9789 30.6648 45.9789 31.0859 45.559C31.3675 45.2954 31.493 44.8243 31.493 44.1434V36.6029C31.493 35.9232 31.3662 35.4496 31.0859 35.1872C30.8069 34.921 30.3294 34.7827 29.6421 34.7827H26.9912V49.3786V49.3773ZM32.3045 11.8477C31.9781 11.8477 31.653 11.8567 31.3317 11.8707V13.2467C31.653 13.2314 31.9781 13.225 32.3045 13.225C42.8056 13.225 51.3189 21.6666 51.3189 32.0807C51.3189 42.496 42.8056 50.9389 32.3045 50.9389C21.8046 50.9389 13.2914 42.496 13.2914 32.0807C13.2914 26.3015 15.9141 21.1303 20.0421 17.6704V15.9117C15.1 19.6032 11.9038 25.4733 11.9038 32.0807C11.9038 43.255 21.0379 52.3149 32.3045 52.3149C43.5723 52.3149 52.7064 43.255 52.7064 32.0807C52.7064 20.9063 43.571 11.8477 32.3045 11.8477ZM22.9413 39.6339C21.1595 37.9085 19.9653 36.777 19.0078 35.8285C17.1864 34.0199 16.7051 32.7949 16.7051 32.7949V35.3344C16.7051 38.1466 17.9915 39.9437 18.6482 40.6771L23.3522 45.2416C24.6629 46.5152 24.8946 47.1207 25.1864 47.8451V44.3994C25.1864 41.4976 23.7016 40.3712 22.9413 39.6339ZM19.0078 28.5491C19.9653 29.4963 21.1582 30.6291 22.9413 32.3559C23.7016 33.0918 25.1864 34.2183 25.1864 37.12V40.3815C24.8946 39.657 24.6616 39.2346 23.3522 37.9622L18.6507 33.3798C17.939 32.6733 16.7051 30.8659 16.7051 28.055V25.1136C16.7051 25.1136 17.1864 26.7405 19.0091 28.5491H19.0078Z" fill="white"/>
</svg>
