<?xml version="1.0" encoding="utf-8"?><svg xmlns="http://www.w3.org/2000/svg" xmlns:xlink="http://www.w3.org/1999/xlink"><symbol fill="none" viewBox="0 0 17 17" id="Vector" xmlns="http://www.w3.org/2000/svg"><path d="M.668 5.948a.834.834 0 00.485.805l6.253 2.869 2.868 6.252a.835.835 0 00.758.486c.015 0 .03 0 .047-.002a.833.833 0 00.745-.571l4.663-14.194a.837.837 0 00-.203-.85.838.838 0 00-.85-.202L1.24 5.204a.831.831 0 00-.572.744z" fill="#38424E"/></symbol><symbol fill="none" viewBox="0 0 64 64" id="alfa" xmlns="http://www.w3.org/2000/svg"><path fill="#EE3524" d="M0 0h64v64H0z"/><path d="M32 10.667c2.817 0 3.725 2.086 4.476 4.173.313.867 7.668 21.542 7.887 22.152.063.16.031.45-.25.546-.282.096-4.07 1.637-4.288 1.702a.429.429 0 01-.532-.257c-.094-.225-1.66-4.72-1.847-5.201H26.554c-.188.514-1.784 5.008-1.847 5.2-.062.193-.313.354-.532.258-.219-.097-4.069-1.606-4.288-1.702a.46.46 0 01-.25-.546c.282-.77 7.512-21.092 7.887-22.152.72-2.054 1.66-4.173 4.476-4.173zM19.073 47.619c-.219 0-.406.192-.406.45v4.815c0 .257.187.45.406.45h25.853c.22 0 .407-.193.407-.45v-4.816c0-.257-.188-.45-.407-.45H19.073zM32 17.409L28.307 28.74h7.418L32.03 17.41H32z" fill="#fff"/></symbol><symbol fill="none" viewBox="0 0 42 47" id="colos" xmlns="http://www.w3.org/2000/svg"><path fill-rule="evenodd" clip-rule="evenodd" d="M23.836 18.084a1.22 1.22 0 00-1.228 1.216c0 .238.07.47.203.669l.346.573a1.002 1.002 0 00-.003 1.517l-.343.572a1.202 1.202 0 00-.202.668c0 .674.55 1.218 1.227 1.218.679 0 1.228-.544 1.228-1.216 0-.5-.579-1.679-.579-1.679v-.642s.579-1.183.579-1.678c0-.672-.55-1.218-1.228-1.218zm0-1.144a2.373 2.373 0 012.381 2.362c0 .458-.134.884-.365 1.247H36.9c.312 0 .572.26.572.576v.352c0 .316-.26.575-.572.575h-1.63v.496h.813v.694h-.813v.723h.813v1.325h-.813v-.6h-1.2v.6h-.812v-1.325h.812v-.723h-.812v-.694h.812v-.495h-8.217c.23.362.365.787.365 1.246a2.371 2.371 0 01-2.38 2.362 2.367 2.367 0 01-2.381-2.362c0-.512.167-.982.448-1.368a.749.749 0 010-1.26 2.329 2.329 0 01-.448-1.37 2.37 2.37 0 012.38-2.36zM9.834 18.211l4.544 4.426V19.78l-4.544-4.403v2.835zm0-3.708l4.544 4.425v-2.857l-4.544-4.403v2.835zm0-3.71l4.544 4.43v-2.859L9.834 7.961v2.833zM18.852.4v4.516l-.6.584V.4h-.685v5.764l-.602.582V.4h-.683v7.01l-.602.583V.4h-.685v11.113l4.542-4.426V.4h-.685zM9.834 22.003l4.544 4.427v-3.028L9.834 19v3.003zm5.161.634l4.542-4.426v-2.835l-4.542 4.403v2.858zM13.695.4v7.594l-.604-.585V.4h-.684v6.346l-.601-.583V.4h-.684v5.1l-.604-.584V.4h-.684v6.687l4.544 4.426V.4h-.683zm1.3 18.528l4.542-4.425v-2.835l-4.542 4.403v2.857zm0-3.707l4.542-4.427V7.96l-4.542 4.403v2.857zm0 8.18L19.537 19v3.003l-4.542 4.427V23.4z" fill="#FFCB05"/><path fill-rule="evenodd" clip-rule="evenodd" d="M29.3 42.331c.278-.136.555-.279.826-.428v-6.434H29.3V42.332zm-11.46-3.927h.802V30.34h-.801v8.064zm17.895-1.28c.318-.405.617-.825.899-1.258v-3.261h-.899v4.52zm2.652-5.474c.086.101.16.132.224.116.146-.436.277-.88.388-1.33h-3.264v.724h.45c.807-.026 1.712-.036 2.202.49zm-5.665-2.446l-.87 4.457.87.822v-5.28zm-16.73 14.173c-.27-.08-.535-.167-.798-.26V28.002h3.448c1.407 0 2.253.547 2.538 1.649.308-1.052 1.118-1.58 2.455-1.58h.784c1.112 0 1.867.366 2.267 1.09l-.177-.895h12.89c-.029.243-.063.483-.103.723h-5.678v10.42c-.489.445-1.005.863-1.541 1.255v-4.971c0-.863-.169-1.393-1.04-1.698l1.04-4.965H30.14l-.307 5.425h-.225l-.309-5.425h-1.838l.913 4.966c-.827.278-1.024.889-1.024 1.697v7.445a17.67 17.67 0 01-1.107.348v-8.1h-1.824v8.509c-.259.044-.521.083-.784.116V30.48h.784v4.13h1.824v-3.868c0-.695-.128-1.181-.393-1.46-.519-.515-1.529-.416-2.215-.416-.673 0-1.152.14-1.417.416-.266.279-.408.765-.408 1.46v13.411a22.1 22.1 0 01-.505.008l-.265-.004V39.5c-.375.828-1.175 1.242-2.398 1.242v3.225a16.868 16.868 0 01-.801-.135v-3.866c.128 0 .267 0 .408.013.646 0 1.416 0 1.837-.42.282-.264.407-.735.407-1.416v-7.54c0-.68-.127-1.153-.407-1.416-.28-.266-.757-.404-1.444-.404h-2.65v14.596-.002zm5.313-37.53c-.327 0-.652.01-.973.024v1.376c.321-.016.646-.022.973-.022 10.5 0 19.014 8.442 19.014 18.856 0 10.415-8.513 18.858-19.015 18.858-10.5 0-19.013-8.443-19.013-18.858 0-5.78 2.623-10.95 6.751-14.41V9.91C4.1 13.604.904 19.474.904 26.082c0 11.174 9.134 20.234 20.4 20.234 11.268 0 20.402-9.06 20.402-20.234 0-11.175-9.135-20.233-20.402-20.233zM11.94 33.635c-1.782-1.726-2.976-2.857-3.933-3.806-1.822-1.808-2.303-3.033-2.303-3.033v2.54c0 2.812 1.287 4.609 1.943 5.342l4.704 4.565c1.31 1.273 1.543 1.879 1.834 2.603V38.4c0-2.901-1.484-4.028-2.245-4.765zM8.008 22.549c.957.947 2.15 2.08 3.933 3.807.76.736 2.245 1.862 2.245 4.764v3.262c-.291-.725-.524-1.147-1.834-2.42L7.651 27.38c-.712-.707-1.946-2.514-1.946-5.325v-2.941s.481 1.627 2.304 3.435h-.001z" fill="#fff"/></symbol><symbol fill="none" viewBox="0 0 25 23" id="cross" xmlns="http://www.w3.org/2000/svg"><path d="M4.397 22.433l7.862-7.977 8.126 8.143 3.405-3.372-8.043-8.045 1.546-1.495V6.496l.971-.822v2.5l1.25 1.02 3.734-3.735 1.2.921c.708-2.615-3.389-8.553-6.777-5.263l-3.948 3.915.807.97-2.007 1.958-1.94-1.909 1.019-.921L7.276.952C4.019-1.73.68 2.35.566 6.33l1.182-.986 3.635 3.914 1.3-1.085V5.772l.806.607v3.143l1.578 1.58-8.025 7.91 3.355 3.422z" fill="#000"/></symbol><symbol fill="none" viewBox="0 0 48 48" id="domrf" xmlns="http://www.w3.org/2000/svg"><path fill="#354148" d="M0 0h48v48H0z"/><path fill-rule="evenodd" clip-rule="evenodd" d="M18.947 24.48H24V12.32h-5.053v12.16zm1.32-1.349h2.414v-9.463h-2.415v9.463zm-7.383 4.39h23.242v-1.015H12.884v1.014zm0 9.12h1.354v-1.594h7.741v-5.501h-9.096v7.094h.001zm1.354-3h6.387v-2.688h-6.388v2.687zm13.149-17.276l2.499-2.697V24.48h1.365v-8.116l2.499-2.696V24.48h1.366V12.32h-1.92l-1.946 2.094V12.32h-1.917l-3.312 3.534v8.626h1.365v-8.115zm-4.398 18.68h5.317v1.594h1.464v-1.593h5.346v-5.5H22.989v5.5zm6.781-1.405h3.942v-2.687H29.77v2.687zm-5.375 0h3.912v-2.687h-3.913v2.687zm-7.777-9.16h1.319V12.32h-1.853l-3.2 3.534v8.626h3.733zm-2.414-8.115l2.413-2.697v9.463h-2.413v-6.766z" fill="#FEFEFE"/></symbol><symbol fill="none" viewBox="0 0 48 48" id="gaz" xmlns="http://www.w3.org/2000/svg"><path fill="#445176" d="M0 0h48v48H0z"/><path fill-rule="evenodd" clip-rule="evenodd" d="M23.877 17.468c6.758.035 14.29 4.891 14.287 7.44-.005 3.71-4.157 3.946-13.627 3.516-8.22-.373-9.758.574-9.797 3.197-.036 2.4 5.683 4.966 13.253 4.855-2.063.566-4.211.735-6.38.246-3.74-.843-7.93-3.425-7.96-5.52-.068-4.433 7.164-4.896 10.969-4.752 4.622.173 11.578.409 11.693-1.882.166-3.25-8.272-6.3-12.382-6.288l-.058-.812h.002z" fill="#fff"/><path fill-rule="evenodd" clip-rule="evenodd" d="M17.853 12.62c1.073-.828 3.197-1.573 6.3-1.58 6.91-.016 10.35 3.047 10.489 5.125.172 2.579-2.905 3.467-10.263 3.043-7.574-.436-12.374 0-12.413 2.198-.04 2.426 9.432 8.283 16.337 8.283 4.752 0 7.396-.918 8.825-1.636a12.355 12.355 0 01-.876 1.99c-1.939.374-4.548.796-7.987.648-5.654-.243-17.241-5.318-17.241-9.286 0-3.969 9.206-4.47 13.243-4.47 4.037 0 8.979.887 8.752-1.54-.226-2.427-4.64-3.236-7.319-3.468-2.678-.23-5.658.192-7.846.693" fill="#fff"/><path fill-rule="evenodd" clip-rule="evenodd" d="M13.703 16.006c.699-.818 1.167-1.325 2.119-2.049 1.061-.484 3.947-1.288 8.567-1.265 7.065.034 12.206 3.587 12.244 5.98.048 3.084-3.75 4.116-12.198 3.671-7.913-.418-12.106.106-12.146 2.414-.042 2.554 8.678 7.796 15.888 7.619 3.499-.086 5.747-.557 7.299-1.091-.44.62-.935 1.2-1.476 1.737-1.641.279-3.571.5-5.71.407-5.907-.256-17.241-4.915-17.241-9.09s9.311-4.01 13.524-3.866c4.624.156 10.253.048 10.264-2.246.013-2.938-7.507-4.58-10.595-4.568-4.928.02-7.44.923-10.537 2.345" fill="#fff"/><path fill-rule="evenodd" clip-rule="evenodd" d="M11.928 18.895c.307-.638.528-1.092.931-1.71 2.797-1.369 6.194-2.013 10.814-1.99 6.758.034 14.035 4.004 14.031 6.554-.005 3.71-3.748 3.995-13.22 3.566-8.22-.371-11.34.523-11.38 3.146-.037 2.554 7.861 6.282 15.07 6.106 1.81-.044 3.285-.192 4.502-.398a13.82 13.82 0 01-2.367 1.452c-.65.029-1.325.03-2.022 0-5.906-.256-16.422-3.402-16.422-7.578 0-4.435 8.544-4.739 12.758-4.596 4.623.157 11.222.255 11.232-2.038.014-2.938-8.016-5.412-12.125-5.401-4.928.013-8.96 1.361-11.803 2.888" fill="#fff"/></symbol><symbol fill="none" viewBox="0 0 20 19" id="heart" xmlns="http://www.w3.org/2000/svg"><path d="M18.205 1.79A5.938 5.938 0 0013.996.038 5.906 5.906 0 0010 1.595 5.904 5.904 0 006.004.037a5.942 5.942 0 00-4.213 1.758c-2.353 2.363-2.352 6.059.002 8.412L10 18.414l8.207-8.207c2.354-2.353 2.355-6.05-.002-8.416z" fill="#FB133D"/></symbol><symbol fill="none" viewBox="0 0 32 32" id="heart-gray" xmlns="http://www.w3.org/2000/svg"><rect opacity=".72" width="32" height="32" rx="16" fill="#F7F8FC"/><path d="M16 8.595a5.904 5.904 0 00-3.996-1.558A5.942 5.942 0 007.79 8.795c-2.353 2.363-2.352 6.06.002 8.412l7.332 7.332c.17.3.498.492.875.492a.99.99 0 00.792-.409l7.415-7.415c2.354-2.354 2.354-6.049-.002-8.416a5.938 5.938 0 00-4.21-1.754A5.906 5.906 0 0016 8.595zm6.79 1.61c1.564 1.571 1.565 4.025.003 5.588L16 22.586l-6.793-6.793c-1.562-1.563-1.561-4.017-.002-5.584a3.953 3.953 0 012.799-1.172c1.045 0 2.035.416 2.789 1.17l.5.5a.999.999 0 001.414 0l.5-.5c1.512-1.509 4.074-1.505 5.584-.002z" fill="#78859B"/></symbol><symbol fill="none" viewBox="0 0 12 12" id="help" xmlns="http://www.w3.org/2000/svg"><path d="M6 3a1.97 1.97 0 00-1.967 1.967h1a.968.968 0 011.934 0c0 .299-.24.516-.608.813a4.604 4.604 0 00-.345.3c-.5.498-.514 1.027-.514 1.087V7.5h1v-.316c0-.008.016-.194.22-.397.075-.075.17-.15.268-.229.389-.316.979-.792.979-1.591A1.969 1.969 0 006 3zm-.5 5h1v1h-1V8z" fill="#38424E"/><path d="M6 1C3.243 1 1 3.243 1 6s2.243 5 5 5 5-2.243 5-5-2.243-5-5-5zm0 9c-2.205 0-4-1.794-4-4 0-2.205 1.795-4 4-4 2.206 0 4 1.795 4 4 0 2.206-1.794 4-4 4z" fill="#38424E"/></symbol><symbol fill="none" viewBox="0 0 64 64" id="hosbank" xmlns="http://www.w3.org/2000/svg"><path fill="#1E4679" d="M0 0h64v64H0z"/><path fill-rule="evenodd" clip-rule="evenodd" d="M29.17 22.667c.137 0 .2-.123.141-.277l-.302-.78c-.059-.151-.218-.277-.354-.277H17.496c-.136 0-.2.123-.14.277l.301.78c.06.151.218.277.355.277H29.17zM29.045 24.276c-.052-.15-.194-.276-.315-.276h-9.919c-.12 0-.177.125-.125.276l.269.781c.052.15.194.276.315.276h9.919c.12 0 .177-.122.125-.276l-.269-.78zM32.973 26.943c-.065-.15-.242-.276-.393-.276h-12.4c-.15 0-.221.122-.155.276l.338.78c.065.152.242.277.393.277h12.396c.152 0 .222-.123.157-.276l-.336-.781zM34.307 29.61c-.066-.151-.243-.277-.394-.277H21.514c-.151 0-.222.123-.156.277l.335.78c.066.151.243.277.394.277h12.399c.151 0 .222-.123.156-.277l-.335-.78zM35.64 32.553c-.066-.301-.242-.553-.394-.553H22.848c-.152 0-.222.246-.157.553l.336 1.566c.065.302.242.548.393.548H35.82c.151 0 .222-.246.156-.548l-.335-1.566z" fill="#FEFEFE"/><path fill-rule="evenodd" clip-rule="evenodd" d="M46.667 34.667a2.668 2.668 0 10-.002-5.331 2.668 2.668 0 00.002 5.33z" fill="#EE3142"/><path fill-rule="evenodd" clip-rule="evenodd" d="M33.074 18.667c.143 0 .26-.137.26-.305v-.724c0-.168-.117-.305-.26-.305H14.926c-.143 0-.26.137-.26.305v.724c0 .168.117.305.26.305h18.148zM24.167 36c-.14 0-.205.09-.144.199l7.211 13.052c.06.11.207.11.267 0L38.09 37.17c.06-.11.223-.201.362-.201H49.08c.14 0 .253-.1.253-.222v-.525c0-.122-.114-.221-.253-.221H24.167zM49.094 17.333h-8.711c-.133 0-.242.12-.242.265v.627c0 .145.109.264.242.264h1.292c.321.022 2.176.032 1.469 2.4l-5.79 13.538c-.056.13.006.24.14.24h1.978c.133 0 .288-.11.346-.24l6.251-14.295c.286-.644.63-1.08 1.03-1.306.402-.223.925-.34 1.607-.34h.386c.133 0 .241-.118.241-.263v-.628c.003-.143-.106-.262-.239-.262z" fill="#FEFEFE"/></symbol><symbol fill="none" viewBox="0 0 18 18" id="mark" xmlns="http://www.w3.org/2000/svg"><path d="M15.637 6.1c.02-.144.03-.29.03-.433 0-1.983-1.786-3.574-3.768-3.305A3.33 3.33 0 009 .667a3.33 3.33 0 00-2.9 1.695c-1.985-.269-3.767 1.322-3.767 3.305 0 .144.01.289.03.434A3.331 3.331 0 00.667 9c0 1.22.668 2.32 1.696 2.9-.02.144-.03.29-.03.433 0 1.983 1.782 3.57 3.768 3.304A3.33 3.33 0 009 17.334a3.33 3.33 0 002.9-1.695c1.98.264 3.767-1.322 3.767-3.305 0-.144-.01-.289-.03-.434A3.332 3.332 0 0017.334 9c0-1.22-.668-2.32-1.695-2.9zM8.13 12.68L5.073 9.585l1.187-1.17 1.88 1.905 3.607-3.578 1.173 1.183-4.79 4.755z" fill="#fff"/></symbol><symbol fill="none" viewBox="0 0 48 48" id="mkb" xmlns="http://www.w3.org/2000/svg"><path fill="#C20018" d="M0 0h48v48H0z"/><path fill-rule="evenodd" clip-rule="evenodd" d="M26.116 17.654L19.58 24.3 16.3 20.964l3.281-3.336h-6.562l-3.2 3.335 9.817 10.01 8.394-8.62h5.03l4.65-4.698H26.117zm-5.114 13.152l.931-.946 6.48-6.56h9.297l-4.648 4.697h-2.736l-2.762 2.808h-6.562v.001z" fill="#fff"/></symbol><symbol fill="none" viewBox="0 0 48 48" id="mts" xmlns="http://www.w3.org/2000/svg"><path fill="#D93832" d="M0 0h48v48H0z"/><path fill-rule="evenodd" clip-rule="evenodd" d="M14 26.956C14 32.455 17.087 38 24 38c6.907 0 10-5.545 10-11.044 0-3.757-1.269-8.082-3.386-11.575C28.555 12.006 26.081 10 24 10c-2.087 0-4.562 2.007-6.603 5.38C15.269 18.875 14 23.2 14 26.956z" fill="#fff"/></symbol><symbol fill="none" viewBox="0 0 48 48" id="prom" xmlns="http://www.w3.org/2000/svg"><path fill="#2051B2" d="M0 0h48v48H0z"/><path d="M38.194 16.856c0-3.79-3.116-6.861-6.959-6.861h-9.828c-3.171 0-5.876 2.108-6.696 5.02h11.88c4.571 0 6.51 2.098 6.51 7.02v11.121c2.948-.811 5.093-3.487 5.093-6.604v-9.696zM9.6 31.316c0 3.79 3.114 6.86 6.958 6.86h9.828c3.171 0 5.876-2.106 6.697-5.02h-11.88c-4.571 0-6.51-2.098-6.51-7.019V15.016c-2.949.81-5.093 3.488-5.093 6.604v9.696z" fill="#fff"/><path d="M28.037 23.693h-.92v-2.206h.92c1.123 0 1.428.534 1.428 1.1 0 .563-.408 1.106-1.428 1.106zm-.92-5.418h.735c1.246 0 1.308.753 1.308.985 0 .342-.184.978-1.247.978h-.797V18.275zm-1.613 3.847v1.922c-.39-.229-.837-.411-1.306-.612-.511-.223-1.062-.505-1.062-1.14 0-.325.204-.805 1.184-.805h1.817l-.633.635zm-6.25 4.916h-.756v-2.59h.756c.94 0 1.368.562 1.368 1.248 0 .636-.386 1.342-1.368 1.342zm10.254-6.206v-.03c.55-.172 1.286-.624 1.286-1.814 0-1.338-1.104-1.953-2.655-1.953h-2.635v3.204h-1.552c-2.083 0-2.512 1.44-2.512 2.226 0 1.116.654 1.61 1.86 2.205.732.36 1.61.583 1.61 1.41 0 .434-.407.958-1.284.958h-1.634c.245-.414.346-.867.346-1.26 0-.513-.184-2.569-3.084-2.569h-2.37v7.926h1.614v-3.453l.653.644h4.413c2.06 0 3.041-1.046 3.041-2.296 0-.442-.081-.798-.224-1.087h1.655c2.552 0 3.144-1.25 3.144-2.228 0-.996-.653-1.732-1.673-1.883h.001z" fill="#fff"/></symbol><symbol fill="none" viewBox="0 0 97 32" id="quyli" xmlns="http://www.w3.org/2000/svg"><path d="M53.228 19.91l2.845 2.92-3.934.594-1.385-1.584c-1.303.71-2.747 1.064-4.33 1.064-2.903 0-5.196-.907-6.879-2.721-1.55-1.65-2.326-3.637-2.326-5.963 0-1.155.223-2.26.669-3.316a8.302 8.302 0 011.88-2.746c1.715-1.666 3.893-2.5 6.532-2.5 1.22 0 2.408.215 3.563.644a8.283 8.283 0 012.994 1.831c1.699 1.633 2.548 3.703 2.548 6.21a8.327 8.327 0 01-.668 3.316 6.676 6.676 0 01-1.51 2.252zm-8.24-3.958l4.034-.52 1.138 1.237a4.114 4.114 0 00.767-2.425c0-.51-.124-1.047-.371-1.608a4.421 4.421 0 00-.965-1.46 4.345 4.345 0 00-1.559-.99c-.594-.247-1.171-.37-1.732-.37-1.303 0-2.392.453-3.266 1.36-.89.924-1.336 2.03-1.336 3.316 0 1.204.412 2.202 1.237 2.994.874.841 1.988 1.262 3.34 1.262.43 0 .875-.058 1.336-.174l-2.622-2.622zM65.856 12.537v-1.064h3.96v11.06h-3.96v-1.212c-.758 1.055-1.905 1.583-3.439 1.583-1.55 0-2.878-.585-3.983-1.756-1.056-1.122-1.584-2.475-1.584-4.058 0-1.815.57-3.29 1.707-4.43 1.04-1.038 2.367-1.558 3.984-1.558 1.353 0 2.458.479 3.316 1.435zm-2.424 1.93c-.66 0-1.237.24-1.732.718-.528.511-.792 1.113-.792 1.806 0 .726.256 1.328.767 1.806.528.495 1.122.742 1.782.742.676 0 1.27-.255 1.78-.767a2.43 2.43 0 00.743-1.781c0-.71-.255-1.311-.767-1.806-.511-.479-1.105-.718-1.781-.718zM72.32 28.2l3.71-7.176-5.344-9.55h4.603l2.944 5.665 2.87-5.666h4.528L76.748 28.2H72.32zM86.485 4.496h3.959v18.037h-3.96V4.496zM92.635 11.473h3.959v11.06h-3.96v-11.06zm.396-3.018a2.206 2.206 0 01-.644-1.584c0-.61.215-1.13.644-1.559.445-.445.973-.668 1.583-.668s1.13.223 1.559.668c.445.43.668.949.668 1.56 0 .61-.223 1.137-.668 1.583a2.123 2.123 0 01-1.559.643c-.61 0-1.138-.214-1.583-.643z" fill="#0F0208"/><path d="M0 4a4 4 0 014-4h20.277a4 4 0 014 4v20.277a4 4 0 01-4 4H4a4 4 0 01-4-4V4z" fill="#5AB677"/><rect x="14.139" y="19.503" width="8.837" height="17.673" rx="2" transform="rotate(-45 14.139 19.503)" fill="#5AB677"/><path fill-rule="evenodd" clip-rule="evenodd" d="M21.208 12.173l-5.686-5.356a2 2 0 00-2.74-.003L7.07 12.173v7.04a2 2 0 002 2h10.139a2 2 0 002-2v-7.04z" fill="#fff"/></symbol><symbol fill="none" viewBox="0 0 20 33" id="redcircle" xmlns="http://www.w3.org/2000/svg"><path d="M19.333 12.5c-1.827 4.887-7.506 7.45-12.689 5.727C1.462 16.502-1.258 11.15.571 6.261 2.397 1.375 8.077-1.188 13.259.535c5.18 1.724 7.9 7.08 6.074 11.966z" fill="url(#ppaint0_linear)"/><path d="M19.897 24.659l.003.948c.006 1.803-4.438 3.28-9.935 3.3-5.494.02-9.95-1.428-9.96-3.23l-.002-.946 19.894-.072z" fill="url(#ppaint1_linear)"/><path d="M19.897 24.659c.006 1.805-4.441 3.28-9.935 3.297-5.494.016-9.956-1.428-9.959-3.228-.006-1.806 4.441-3.284 9.938-3.303 5.491-.014 9.95 1.43 9.956 3.233z" fill="url(#ppaint2_linear)"/><path d="M.003 31.91c0-.263 4.453-.527 9.95-.527 5.494 0 9.947.261 9.947.527v.563c0 .26-4.453.524-9.947.524-5.494 0-9.95-.26-9.95-.524v-.563z" fill="url(#ppaint3_linear)"/><defs><linearGradient id="ppaint0_linear" x1="7.528" y1="12.449" x2="21.53" y2="-7.487" gradientUnits="userSpaceOnUse"><stop stop-color="#DB1E33"/><stop offset="1" stop-color="#F57E21"/></linearGradient><linearGradient id="ppaint1_linear" x1="13.322" y1="26.751" x2="21.901" y2="26.988" gradientUnits="userSpaceOnUse"><stop stop-color="#A11C34"/><stop offset="1" stop-color="#C22034"/></linearGradient><linearGradient id="ppaint2_linear" x1="8.702" y1="25.282" x2="28.77" y2="14.648" gradientUnits="userSpaceOnUse"><stop stop-color="#DB1E33"/><stop offset=".81" stop-color="#F08128"/><stop offset="1" stop-color="#F79421"/></linearGradient><linearGradient id="ppaint3_linear" x1="7.866" y1="32.27" x2="-4.946" y2="32.812" gradientUnits="userSpaceOnUse"><stop stop-color="#A11C34"/><stop offset="1" stop-color="#C22034"/></linearGradient></defs></symbol><symbol fill="none" viewBox="0 0 48 48" id="rosbank" xmlns="http://www.w3.org/2000/svg"><path fill="#E9041E" d="M0 0h48v24H0z"/><path fill="#000" d="M0 48h48V24H0z"/><path d="M8 22h31v4H8v-4z" fill="#fff"/></symbol><symbol fill="none" viewBox="0 0 64 64" id="sber" xmlns="http://www.w3.org/2000/svg"><path fill="#0294F0" d="M0 0h36v64H0z"/><path fill="#F3EA14" d="M36 0h28v44H36z"/><path fill="#21A038" d="M12 33.333h52V64H12z"/><g filter="url(#rfilter0_b)"><path fill="url(#rpaint0_angular)" fill-opacity=".01" d="M0 0h64v64H0z"/></g><path d="M45.61 21.405c.818 1.055 1.5 2.212 2.079 3.437L31.94 36.447l-6.613-4.152v-4.968l6.579 4.117 13.702-10.039zM18.613 31.955c0-.238 0-.442.034-.68l-3.988-.205c0 .272-.034.579-.034.85 0 4.765 1.943 9.087 5.079 12.218l2.829-2.824a13.07 13.07 0 01-3.92-9.359zM31.907 18.683c.238 0 .443 0 .682.034l.204-3.982c-.273 0-.58-.034-.852-.034-4.772 0-9.101 1.94-12.237 5.07l2.829 2.825a13.171 13.171 0 019.374-3.913zM31.907 45.227c-.239 0-.443 0-.682-.034l-.205 3.982c.273 0 .58.034.853.034 4.772 0 9.1-1.94 12.237-5.07l-2.83-2.825c-2.386 2.45-5.692 3.913-9.373 3.913z" fill="#fff"/><path d="M39.406 20.997l3.374-2.485c-2.965-2.382-6.749-3.845-10.873-3.845v3.981c2.795.034 5.385.885 7.499 2.349zM49.223 31.955c0-1.055-.103-2.076-.273-3.097l-3.715 2.756v.34c0 3.914-1.705 7.42-4.398 9.836l2.693 2.96a17.227 17.227 0 005.693-12.795zM31.907 45.227c-3.92 0-7.431-1.701-9.851-4.39l-2.966 2.689a17.212 17.212 0 0012.817 5.683v-3.982zM23.01 22.12l-2.693-2.961a17.16 17.16 0 00-5.692 12.796h3.988c0-3.88 1.704-7.42 4.397-9.835z" fill="#fff"/><defs><radialGradient id="rpaint0_angular" cx="0" cy="0" r="1" gradientUnits="userSpaceOnUse" gradientTransform="matrix(0 32 -32 0 32 32)"><stop offset=".328" stop-color="#0199F9"/><stop offset=".51" stop-color="#EFE815"/><stop offset="1" stop-color="#21A038"/></radialGradient><filter id="rfilter0_b" x="-32" y="-32" width="128" height="128" filterUnits="userSpaceOnUse" color-interpolation-filters="sRGB"><feFlood flood-opacity="0" result="BackgroundImageFix"/><feGaussianBlur in="BackgroundImage" stdDeviation="16"/><feComposite in2="SourceAlpha" operator="in" result="effect1_backgroundBlur"/><feBlend in="SourceGraphic" in2="effect1_backgroundBlur" result="shape"/></filter></defs></symbol><symbol fill="none" viewBox="0 0 48 48" id="ural" xmlns="http://www.w3.org/2000/svg"><path fill="#3C5186" d="M0 0h48v48H0z"/><path fill-rule="evenodd" clip-rule="evenodd" d="M24.624 17.194c.269-.023.536.017.785.115l-.057-7.525h.9a73.8 73.8 0 00.279 7.694 11.09 11.09 0 013.49 20.047c-.057-.058-.169-.228-.278-.344-3.2-4.194-3.99-10.468-4.212-15.911.445.105.896.182 1.35.232a23.592 23.592 0 005.793 12.405 7.562 7.562 0 00-.448-9.888 10.621 10.621 0 00-5.165-3.156 11.578 11.578 0 00-2.86-.344c-.964.002-1.925.117-2.861.344-4.159 1.094-7.246 4.425-7.246 8.385a8.1 8.1 0 001.57 4.653 23.183 23.183 0 005.786-12.405c.47-.053.938-.131 1.402-.232-.228 5.455-1.012 11.631-4.21 15.853v-.057a3.102 3.102 0 01-.339.459A11.15 11.15 0 0121.9 17.472c.278-5.63.225-7.693.225-7.693h.896l-.058 7.526c.23-.096.48-.134.727-.118V6.108h.936v11.086zm.058 4.017c.111 5.234.448 11.776 2.135 16.195.169.461.448.98.675 1.438-1.079.317-2.193.49-3.315.519a12.2 12.2 0 01-3.315-.519c.28-.581.507-1.094.733-1.605 1.57-4.368 2.024-10.857 2.077-16.027h1.012-.002z" fill="#fff"/></symbol></svg>